<?xml version="1.0" encoding="UTF-8" standalone="no" ?>
<!DOCTYPE svg PUBLIC "-//W3C//DTD SVG 1.1//EN" "http://www.w3.org/Graphics/SVG/1.1/DTD/svg11.dtd">
<svg xmlns="http://www.w3.org/2000/svg" xmlns:xlink="http://www.w3.org/1999/xlink" version="1.1" width="1000" height="1000" viewBox="0 0 500 500" xml:space="preserve">
<desc>Created with Fabric.js 4.6.0</desc>
<defs>
</defs>
<g transform="matrix(1 0 0 1 230.77 248.9)" id="yxHwyUAR3TZRAmwDgA5KC"  >
<path style="stroke: rgb(255,0,0); stroke-width: 3; stroke-dasharray: none; stroke-linecap: butt; stroke-dashoffset: 0; stroke-linejoin: miter; stroke-miterlimit: 4; fill: rgb(255,255,255); fill-opacity: 0; fill-rule: nonzero; opacity: 1;" vector-effect="non-scaling-stroke"  transform=" translate(0, 0)" d="M 19.23412 -254.03226 C 19.23412 -254.03226 20.700400000000002 -179.25220000000002 -2.0268799999999985 -139.66276 C -24.75415 -100.07332 -88.53714 -51.68621999999999 -131.05914 -70.01467 C -173.58113000000003 -88.34312 -180.91251 -132.33139 -180.17937 -146.261 C -179.44623 -160.19062 -176.51368 -181.45162 -153.05327 -198.31378999999998 C -129.59286 -215.17595999999998 -68.74242 -215.9091 -70.2087 -176.31966 C -71.67497999999999 -136.73022 -114.93010999999998 -61.217020000000005 -83.40517999999999 -7.697959999999995 C -51.88024999999999 45.82110000000001 3.838220000000007 82.47799 80.08456000000002 35.557170000000006 C 156.33089 -11.363649999999993 173.92620000000002 -45.82112999999999 178.32503000000003 -73.68036999999998 C 182.72386000000003 -101.53960999999998 182.72386000000003 -157.25807999999998 141.66814000000002 -198.3138 C 100.61242000000001 -239.36952 52.95846000000002 -169.72142 57.35729000000002 -125.00001999999999 C 61.756120000000024 -80.27860999999999 74.21946000000003 -0.366589999999988 106.47752000000003 62.683260000000004 C 138.73558000000003 125.73311000000001 137.26931000000002 144.7947 113.07576000000003 163.85628 C 88.88221000000003 182.91786 19.967260000000024 156.5249 19.234120000000033 200.51317 C 18.500980000000034 244.50144 19.234120000000033 254.03223 19.234120000000033 254.03223" stroke-linecap="round" />
</g>
</svg>